<svg width="74.000000" height="74.000000" viewBox="0 0 74 74" fill="none" xmlns="http://www.w3.org/2000/svg" xmlns:xlink="http://www.w3.org/1999/xlink">
	<desc>
			Created with Pixso.
	</desc>
	<defs>
		<clipPath id="clip2_6360">
			<rect id="Icons/Microphone" width="74.000000" height="74.000000" fill="white" fill-opacity="0"/>
		</clipPath>
	</defs>
	<rect id="Icons/Microphone" width="74.000000" height="74.000000" fill="#FFFFFF" fill-opacity="0"/>
	<rect id="Icons/Microphone" width="74.000000" height="74.000000" fill="#FFFFFF" fill-opacity="0"/>
	<rect id="Icons/Microphone" width="74.000000" height="74.000000" fill="#FFFFFF" fill-opacity="0"/>
	<rect id="Icons/Microphone" width="74.000000" height="74.000000" fill="#FFFFFF" fill-opacity="0"/>
	<rect id="Icons/Microphone" width="74.000000" height="74.000000" fill="#FFFFFF" fill-opacity="0"/>
	<g clip-path="url(#clip2_6360)">
		<path id="Vector" d="M36.99 0C29.01 0 22.52 6.75 22.52 15.05L22.52 37C22.52 45.3 29.01 52.05 36.99 52.05C44.98 52.05 51.47 45.3 51.47 37L51.47 15.05C51.47 6.75 44.98 0 36.99 0ZM36.99 48.83C31.31 48.83 26.6 44.37 25.85 38.6L48.14 38.6C47.39 44.37 42.68 48.83 36.99 48.83ZM48.26 35.39L25.73 35.39L25.73 15.05C25.73 8.52 30.79 3.21 36.99 3.21C43.2 3.21 48.26 8.52 48.26 15.05L48.26 35.39Z" fill="#FFB400" fill-opacity="1.000000" fill-rule="nonzero"/>
		<path id="Vector" d="M59.52 28.95C58.63 28.95 57.91 29.67 57.91 30.56L57.91 37C57.91 48.53 48.53 57.91 37 57.91C25.46 57.91 16.08 48.53 16.08 37L16.08 30.56C16.08 29.67 15.36 28.95 14.47 28.95C13.59 28.95 12.86 29.67 12.86 30.56L12.86 37C12.86 49.76 22.83 60.21 35.39 61.04L35.39 70.78L27.34 70.78C26.46 70.78 25.73 71.5 25.73 72.39C25.73 73.27 26.46 74 27.34 74L46.65 74C47.54 74 48.26 73.27 48.26 72.39C48.26 71.5 47.54 70.78 46.65 70.78L38.6 70.78L38.6 61.04C51.16 60.21 61.13 49.76 61.13 37L61.13 30.56C61.13 29.67 60.4 28.95 59.52 28.95Z" fill="#FFB400" fill-opacity="1.000000" fill-rule="nonzero"/>
	</g>
</svg>
