<svg width="68.000000" height="68.000000" viewBox="0 0 68 68" fill="none" xmlns="http://www.w3.org/2000/svg" xmlns:xlink="http://www.w3.org/1999/xlink">
	<desc>
			Created with Pixso.
	</desc>
	<defs>
		<clipPath id="clip2_6547">
			<rect width="68.000000" height="68.000000" fill="white" fill-opacity="0"/>
		</clipPath>
	</defs>
	<rect width="68.000000" height="68.000000" fill="#FFFFFF" fill-opacity="0"/>
	<rect width="68.000000" height="68.000000" fill="#FFFFFF" fill-opacity="0"/>
	<rect width="68.000000" height="68.000000" fill="#FFFFFF" fill-opacity="0"/>
	<rect width="68.000000" height="68.000000" fill="#FFFFFF" fill-opacity="0"/>
	<rect width="68.000000" height="68.000000" fill="#FFFFFF" fill-opacity="0"/>
	<g clip-path="url(#clip2_6547)">
		<path d="M63.21 7.43L4.78 7.43C3.79 7.43 2.85 7.83 2.15 8.52C1.45 9.22 1.06 10.17 1.06 11.15L1.06 48.34C1.06 49.32 1.45 50.27 2.15 50.97C2.85 51.66 3.79 52.06 4.78 52.06L26.05 52.06L24.78 55.25L19.12 55.25C18.84 55.25 18.57 55.36 18.37 55.56C18.17 55.76 18.06 56.03 18.06 56.31L18.06 58.43L11.68 58.43C11.4 58.43 11.13 58.54 10.93 58.74C10.73 58.94 10.62 59.21 10.62 59.5C10.62 59.78 10.73 60.05 10.93 60.25C11.13 60.45 11.4 60.56 11.68 60.56L56.31 60.56C56.59 60.56 56.86 60.45 57.06 60.25C57.26 60.05 57.37 59.78 57.37 59.5C57.37 59.21 57.26 58.94 57.06 58.74C56.86 58.54 56.59 58.43 56.31 58.43L49.93 58.43L49.93 56.31C49.93 56.03 49.82 55.76 49.62 55.56C49.42 55.36 49.15 55.25 48.87 55.25L43.21 55.25L41.94 52.06L63.21 52.06C64.2 52.06 65.14 51.66 65.84 50.97C66.54 50.27 66.93 49.32 66.93 48.34L66.93 11.15C66.93 10.17 66.54 9.22 65.84 8.52C65.14 7.83 64.2 7.43 63.21 7.43ZM47.81 57.37L47.81 58.43L20.18 58.43L20.18 57.37L47.81 57.37ZM27.06 55.25L28.34 52.06L39.65 52.06L40.93 55.25L27.06 55.25ZM64.81 48.34C64.81 48.76 64.64 49.17 64.34 49.47C64.04 49.76 63.64 49.93 63.21 49.93L4.78 49.93C4.35 49.93 3.95 49.76 3.65 49.47C3.35 49.17 3.18 48.76 3.18 48.34L3.18 45.68L64.81 45.68L64.81 48.34ZM64.81 43.56L3.18 43.56L3.18 11.15C3.18 10.73 3.35 10.32 3.65 10.02C3.95 9.73 4.35 9.56 4.78 9.56L63.21 9.56C63.64 9.56 64.04 9.73 64.34 10.02C64.64 10.32 64.81 10.73 64.81 11.15L64.81 43.56Z" fill="#FFB400" fill-opacity="1.000000" fill-rule="nonzero"/>
		<path d="M29.16 34.88C29.28 34.96 29.41 35.01 29.55 35.04C29.68 35.06 29.82 35.06 29.96 35.04C30.1 35.01 30.23 34.95 30.34 34.87C30.46 34.79 30.56 34.69 30.63 34.58L39 21.83C39.16 21.59 39.21 21.3 39.15 21.03C39.1 20.75 38.93 20.51 38.7 20.36C38.46 20.2 38.17 20.15 37.9 20.2C37.62 20.26 37.38 20.43 37.22 20.66L28.86 33.41C28.78 33.53 28.73 33.66 28.7 33.8C28.68 33.93 28.68 34.07 28.7 34.21C28.73 34.35 28.79 34.48 28.87 34.59C28.94 34.71 29.05 34.81 29.16 34.88Z" fill="#FFB400" fill-opacity="1.000000" fill-rule="nonzero"/>
		<path d="M40.75 34.81C40.97 34.99 41.25 35.08 41.53 35.05C41.81 35.03 42.07 34.89 42.25 34.67L47.56 28.3C47.72 28.11 47.81 27.87 47.81 27.62C47.81 27.37 47.72 27.13 47.56 26.94L42.25 20.56C42.16 20.46 42.05 20.37 41.93 20.3C41.8 20.24 41.67 20.2 41.53 20.18C41.39 20.17 41.25 20.18 41.11 20.23C40.98 20.27 40.86 20.33 40.75 20.42C40.64 20.51 40.55 20.62 40.49 20.75C40.42 20.87 40.38 21.01 40.37 21.15C40.36 21.29 40.37 21.43 40.42 21.56C40.46 21.69 40.53 21.82 40.62 21.92L45.36 27.62L40.62 33.31C40.44 33.53 40.35 33.81 40.37 34.09C40.4 34.37 40.54 34.63 40.75 34.81Z" fill="#FFB400" fill-opacity="1.000000" fill-rule="nonzero"/>
		<path d="M25.74 34.67C25.83 34.78 25.94 34.87 26.06 34.94C26.19 35 26.32 35.04 26.46 35.06C26.6 35.07 26.74 35.06 26.88 35.01C27.01 34.97 27.13 34.91 27.24 34.82C27.35 34.73 27.44 34.62 27.5 34.49C27.57 34.37 27.61 34.23 27.62 34.09C27.63 33.95 27.62 33.81 27.57 33.68C27.53 33.55 27.46 33.42 27.37 33.31L22.63 27.62L27.37 21.92C27.46 21.82 27.53 21.69 27.57 21.56C27.62 21.43 27.63 21.29 27.62 21.15C27.61 21.01 27.57 20.87 27.5 20.75C27.44 20.62 27.35 20.51 27.24 20.42C27.13 20.33 27.01 20.27 26.88 20.23C26.74 20.18 26.6 20.17 26.46 20.18C26.32 20.2 26.19 20.24 26.06 20.3C25.94 20.37 25.83 20.46 25.74 20.56L20.43 26.94C20.27 27.13 20.18 27.37 20.18 27.62C20.18 27.87 20.27 28.11 20.43 28.3L25.74 34.67Z" fill="#FFB400" fill-opacity="1.000000" fill-rule="nonzero"/>
	</g>
</svg>
