<svg width="78.000000" height="78.000000" viewBox="0 0 78 78" fill="none" xmlns="http://www.w3.org/2000/svg" xmlns:xlink="http://www.w3.org/1999/xlink">
	<desc>
			Created with Pixso.
	</desc>
	<defs>
		<clipPath id="clip2_6020">
			<rect id="Icons/Photographer" width="78.000000" height="78.000000" fill="white" fill-opacity="0"/>
		</clipPath>
	</defs>
	<rect id="Icons/Photographer" width="78.000000" height="78.000000" fill="#FFFFFF" fill-opacity="0"/>
	<rect id="Icons/Photographer" width="78.000000" height="78.000000" fill="#FFFFFF" fill-opacity="0"/>
	<rect id="Icons/Photographer" width="78.000000" height="78.000000" fill="#FFFFFF" fill-opacity="0"/>
	<rect id="Icons/Photographer" width="78.000000" height="78.000000" fill="#FFFFFF" fill-opacity="0"/>
	<rect id="Icons/Photographer" width="78.000000" height="78.000000" fill="#FFFFFF" fill-opacity="0"/>
	<g clip-path="url(#clip2_6020)">
		<path id="Vector" d="M55.35 72.96L74.71 72.96L69.74 58.05C68.44 54.15 65.12 51.26 61.08 50.51L47.8 48.02L47.8 44.94C50.98 42.65 53.23 39.15 53.88 35.12C56.85 34.61 59.12 32.04 59.12 28.93L59.12 20.12C59.12 9.03 50.09 0 39 0C27.9 0 18.87 9.03 18.87 20.12L18.87 28.93C18.87 32.04 21.13 34.62 24.09 35.13C24.75 39.16 27.01 42.67 30.19 44.96L30.19 48.02L16.91 50.51C12.87 51.27 9.55 54.16 8.25 58.05L3.28 72.96L22.64 72.96L22.64 70.45L19.22 70.45L21.34 61.94L18.9 61.34L16.63 70.45L6.77 70.45L10.64 58.85C11.65 55.82 14.23 53.57 17.37 52.98L25.38 51.48L27.43 60.7C26.09 61.28 25.16 62.61 25.16 64.16L25.16 74.22C25.16 76.3 26.85 78 28.93 78L49.06 78C51.14 78 52.83 76.3 52.83 74.22L52.83 64.16C52.83 62.61 51.89 61.28 50.56 60.7L52.61 51.48L60.62 52.98C63.76 53.57 66.34 55.82 67.35 58.85L71.22 70.45L61.36 70.45L59.09 61.34L56.65 61.94L58.77 70.45L55.35 70.45L55.35 72.96ZM50.13 51.01L48.39 58.83L47.53 55.35L42.03 55.35L46.96 50.42L50.13 51.01ZM46.19 60.38L31.8 60.38L32.43 57.87L45.56 57.87L46.19 60.38ZM39 54.83L32.7 48.54L32.7 46.42C34.62 47.3 36.75 47.8 39 47.8C41.24 47.8 43.37 47.29 45.29 46.41L45.29 48.54L39 54.83ZM54.09 32.47L54.09 25.39C55.55 25.91 56.61 27.29 56.61 28.93C56.61 30.57 55.55 31.95 54.09 32.47ZM23.9 32.49C22.43 31.97 21.38 30.57 21.38 28.93C21.38 27.29 22.43 25.89 23.9 25.37L23.9 32.49ZM21.38 23.93L21.38 20.12C21.38 10.41 29.28 2.51 39 2.51C48.71 2.51 56.61 10.41 56.61 20.12L56.61 23.93C55.86 23.37 55 22.95 54.05 22.76C53.85 21.28 52.59 20.12 51.05 20.12C50.26 20.12 49.47 20.45 48.84 21.08C46.72 23.2 44.03 24.56 41.11 25L41.19 24.84C41.4 24.42 41.51 23.95 41.51 23.48L41.51 23.16C41.51 21.49 40.15 20.12 38.47 20.12C37.68 20.12 36.89 20.45 36.33 21.01C33.68 23.66 30.16 25.13 26.41 25.16L26.41 22.64L25.16 22.64C23.73 22.64 22.44 23.13 21.38 23.93ZM26.41 32.7L26.41 27.67C30.83 27.65 34.98 25.92 38.1 22.79C38.41 22.49 39 22.74 39 23.16L39 23.48C39 23.56 38.98 23.64 38.94 23.71L36.96 27.67L39 27.67C43.39 27.67 47.52 25.96 50.68 22.79C50.99 22.49 51.58 22.74 51.58 23.16L51.58 32.7C51.58 39.64 45.93 45.29 39 45.29C32.06 45.29 26.41 39.64 26.41 32.7ZM31.03 50.42L35.96 55.35L30.46 55.35L29.59 58.83L27.86 51.01L31.03 50.42ZM28.93 75.48C28.24 75.48 27.67 74.92 27.67 74.22L27.67 64.16C27.67 63.46 28.24 62.9 28.93 62.9L32.84 62.9C31.21 64.5 30.19 66.73 30.19 69.19C30.19 71.65 31.21 73.88 32.84 75.48L28.93 75.48ZM39 75.48C35.53 75.48 32.7 72.66 32.7 69.19C32.7 65.72 35.53 62.9 39 62.9C42.46 62.9 45.29 65.72 45.29 69.19C45.29 72.66 42.46 75.48 39 75.48ZM50.32 74.22C50.32 74.92 49.75 75.48 49.06 75.48L45.15 75.48C46.78 73.88 47.8 71.65 47.8 69.19C47.8 66.73 46.78 64.5 45.15 62.9L49.06 62.9C49.75 62.9 50.32 63.46 50.32 64.16L50.32 74.22Z" fill="#FFB400" fill-opacity="1.000000" fill-rule="nonzero"/>
		<path id="Vector" d="M39 65.41C36.91 65.41 35.22 67.11 35.22 69.19C35.22 71.27 36.91 72.96 39 72.96C41.08 72.96 42.77 71.27 42.77 69.19C42.77 67.11 41.08 65.41 39 65.41ZM39 70.45C38.3 70.45 37.74 69.88 37.74 69.19C37.74 68.49 38.3 67.93 39 67.93C39.69 67.93 40.25 68.49 40.25 69.19C40.25 69.88 39.69 70.45 39 70.45Z" fill="#FFB400" fill-opacity="1.000000" fill-rule="nonzero"/>
	</g>
</svg>
