<svg width="74.000000" height="74.000000" viewBox="0 0 74 74" fill="none" xmlns="http://www.w3.org/2000/svg" xmlns:xlink="http://www.w3.org/1999/xlink">
	<desc>
			Created with Pixso.
	</desc>
	<defs>
		<clipPath id="clip2_6154">
			<rect id="Icons/game-development" width="74.000000" height="74.000000" fill="white" fill-opacity="0"/>
		</clipPath>
	</defs>
	<rect id="Icons/game-development" width="74.000000" height="74.000000" fill="#FFFFFF" fill-opacity="0"/>
	<rect id="Icons/game-development" width="74.000000" height="74.000000" fill="#FFFFFF" fill-opacity="0"/>
	<rect id="Icons/game-development" width="74.000000" height="74.000000" fill="#FFFFFF" fill-opacity="0"/>
	<rect id="Icons/game-development" width="74.000000" height="74.000000" fill="#FFFFFF" fill-opacity="0"/>
	<rect id="Icons/game-development" width="74.000000" height="74.000000" fill="#FFFFFF" fill-opacity="0"/>
	<g clip-path="url(#clip2_6154)">
		<path id="Vector" d="M32.37 38.15L41.62 38.15L41.62 40.46L32.37 40.46L32.37 38.15Z" fill="#FFB400" fill-opacity="1.000000" fill-rule="nonzero"/>
		<path id="Vector" d="M35.84 34.68L38.15 34.68L38.15 43.93L35.84 43.93L35.84 34.68Z" fill="#FFB400" fill-opacity="1.000000" fill-rule="nonzero"/>
		<path id="Vector" d="M65.9 38.15L68.21 38.15L68.21 40.46L65.9 40.46L65.9 38.15Z" fill="#FFB400" fill-opacity="1.000000" fill-rule="nonzero"/>
		<path id="Vector" d="M56.65 38.15L58.96 38.15L58.96 40.46L56.65 40.46L56.65 38.15Z" fill="#FFB400" fill-opacity="1.000000" fill-rule="nonzero"/>
		<path id="Vector" d="M61.28 33.53L63.59 33.53L63.59 35.84L61.28 35.84L61.28 33.53Z" fill="#FFB400" fill-opacity="1.000000" fill-rule="nonzero"/>
		<path id="Vector" d="M61.28 42.78L63.59 42.78L63.59 45.09L61.28 45.09L61.28 42.78Z" fill="#FFB400" fill-opacity="1.000000" fill-rule="nonzero"/>
		<path id="Vector" d="M10.65 20.37L5.45 13.87L10.65 7.37L12.46 8.81L8.41 13.87L12.46 18.93L10.65 20.37Z" fill="#FFB400" fill-opacity="1.000000" fill-rule="nonzero"/>
		<path id="Vector" d="M28.65 20.37L26.84 18.93L30.89 13.87L26.84 8.81L28.65 7.37L33.85 13.87L28.65 20.37Z" fill="#FFB400" fill-opacity="1.000000" fill-rule="nonzero"/>
		<path id="Vector" d="M14.73 17.73L22.83 8.48L24.57 10.01L16.47 19.26L14.73 17.73Z" fill="#FFB400" fill-opacity="1.000000" fill-rule="nonzero"/>
		<path id="Vector" d="M9.25 50.87L4.62 50.87L4.62 46.25L6.93 46.25L6.93 48.56L9.25 48.56L9.25 50.87Z" fill="#FFB400" fill-opacity="1.000000" fill-rule="nonzero"/>
		<path id="Vector" d="M70.53 2.31L3.46 2.31C1.55 2.31 0 3.86 0 5.78L0 52.03C0 53.94 1.55 55.5 3.46 55.5L27.75 55.5L27.75 61.28C27.75 63.19 26.19 64.75 24.28 64.75L18.5 64.75L18.5 71.68L55.5 71.68L55.5 64.75L49.71 64.75C47.8 64.75 46.25 63.19 46.25 61.28L46.25 55.5L70.53 55.5C72.44 55.5 74 53.94 74 52.03L74 5.78C74 3.86 72.44 2.31 70.53 2.31ZM53.18 67.06L53.18 69.37L20.81 69.37L20.81 67.06L53.18 67.06ZM37 62.48C38.91 62.48 40.46 60.93 40.46 59.01L40.46 55.5L43.93 55.5L43.93 61.28C43.94 62.53 44.35 63.75 45.12 64.75L28.87 64.75C29.64 63.75 30.05 62.53 30.06 61.28L30.06 55.5L33.53 55.5L33.53 59.01C33.53 60.93 35.08 62.48 37 62.48ZM35.84 59.01L35.84 55.5L38.15 55.5L38.15 59.01C38.15 59.65 37.63 60.17 37 60.17C36.36 60.17 35.84 59.65 35.84 59.01ZM71.68 52.03C71.68 52.66 71.16 53.18 70.53 53.18L3.46 53.18C2.83 53.18 2.31 52.66 2.31 52.03L2.31 41.62L25.66 41.62C26.62 46.33 30.39 49.95 35.13 50.72C39.87 51.49 44.6 49.25 47 45.09L52.43 45.09C54.37 48.46 57.87 50.62 61.75 50.85C65.63 51.08 69.37 49.33 71.68 46.22L71.68 52.03ZM62.43 48.56C58.92 48.57 55.71 46.57 54.16 43.42L53.84 42.78L45.59 42.78L45.27 43.42C43.24 47.51 38.54 49.5 34.19 48.12C29.84 46.74 27.14 42.4 27.84 37.89C28.54 33.38 32.43 30.05 37 30.06L62.43 30.06C67.54 30.06 71.68 34.2 71.68 39.31C71.68 44.42 67.54 48.56 62.43 48.56ZM71.68 32.4C69.51 29.47 66.08 27.75 62.43 27.75L37 27.75C30.61 27.75 25.44 32.92 25.43 39.31L2.31 39.31L2.31 5.78C2.31 5.14 2.83 4.62 3.46 4.62L70.53 4.62C71.16 4.62 71.68 5.14 71.68 5.78L71.68 32.4Z" fill="#FFB400" fill-opacity="1.000000" fill-rule="nonzero"/>
		<path id="Vector" d="M47.4 38.15L52.03 38.15L52.03 40.46L47.4 40.46L47.4 38.15Z" fill="#FFB400" fill-opacity="1.000000" fill-rule="nonzero"/>
		<path id="Vector" d="M34.68 9.25L43.93 9.25L43.93 11.56L34.68 11.56L34.68 9.25Z" fill="#FFB400" fill-opacity="1.000000" fill-rule="nonzero"/>
		<path id="Vector" d="M48.56 9.25L67.06 9.25L67.06 11.56L48.56 11.56L48.56 9.25Z" fill="#FFB400" fill-opacity="1.000000" fill-rule="nonzero"/>
		<path id="Vector" d="M50.87 13.87L67.06 13.87L67.06 16.18L50.87 16.18L50.87 13.87Z" fill="#FFB400" fill-opacity="1.000000" fill-rule="nonzero"/>
		<path id="Vector" d="M37 13.87L46.25 13.87L46.25 16.18L37 16.18L37 13.87Z" fill="#FFB400" fill-opacity="1.000000" fill-rule="nonzero"/>
		<path id="Vector" d="M34.68 18.5L57.81 18.5L57.81 20.81L34.68 20.81L34.68 18.5Z" fill="#FFB400" fill-opacity="1.000000" fill-rule="nonzero"/>
		<path id="Vector" d="M62.43 18.5L67.06 18.5L67.06 20.81L62.43 20.81L62.43 18.5Z" fill="#FFB400" fill-opacity="1.000000" fill-rule="nonzero"/>
		<path id="Vector" d="M6.93 23.12L18.5 23.12L18.5 25.43L6.93 25.43L6.93 23.12Z" fill="#FFB400" fill-opacity="1.000000" fill-rule="nonzero"/>
		<path id="Vector" d="M23.12 23.12L45.09 23.12L45.09 25.43L23.12 25.43L23.12 23.12Z" fill="#FFB400" fill-opacity="1.000000" fill-rule="nonzero"/>
		<path id="Vector" d="M48.56 23.12L67.06 23.12L67.06 25.43L48.56 25.43L48.56 23.12Z" fill="#FFB400" fill-opacity="1.000000" fill-rule="nonzero"/>
		<path id="Vector" d="M6.93 27.75L25.43 27.75L25.43 30.06L6.93 30.06L6.93 27.75Z" fill="#FFB400" fill-opacity="1.000000" fill-rule="nonzero"/>
		<path id="Vector" d="M6.93 32.37L16.18 32.37L16.18 34.68L6.93 34.68L6.93 32.37Z" fill="#FFB400" fill-opacity="1.000000" fill-rule="nonzero"/>
		<path id="Vector" d="M18.5 32.37L23.12 32.37L23.12 34.68L18.5 34.68L18.5 32.37Z" fill="#FFB400" fill-opacity="1.000000" fill-rule="nonzero"/>
	</g>
</svg>
