<svg width="76.000000" height="76.000000" viewBox="0 0 76 76" fill="none" xmlns="http://www.w3.org/2000/svg" xmlns:xlink="http://www.w3.org/1999/xlink">
	<desc>
			Created with Pixso.
	</desc>
	<defs>
		<clipPath id="clip2_6449">
			<rect id="Icons/illustration" width="76.000000" height="76.000000" fill="white" fill-opacity="0"/>
		</clipPath>
	</defs>
	<rect id="Icons/illustration" width="68.000000" height="68.000000" transform="translate(0.000000 8.000000)" fill="#FFFFFF" fill-opacity="0"/>
	<rect id="Icons/illustration" width="68.000000" height="68.000000" transform="translate(0.000000 8.000000)" fill="#FFFFFF" fill-opacity="0"/>
	<rect id="Icons/illustration" width="76.000000" height="76.000000" fill="#FFFFFF" fill-opacity="0"/>
	<rect id="Icons/illustration" width="76.000000" height="76.000000" fill="#FFFFFF" fill-opacity="0"/>
	<rect id="Icons/illustration" width="76.000000" height="76.000000" fill="#FFFFFF" fill-opacity="0"/>
	<g clip-path="url(#clip2_6449)">
		<path id="Vector" d="M35.32 55.14C34.71 55.14 34.21 55.64 34.21 56.25C34.21 56.87 34.71 57.36 35.32 57.36L40.67 57.36C41.28 57.36 41.78 56.87 41.78 56.25C41.78 55.64 41.28 55.14 40.67 55.14L35.32 55.14Z" fill="#FFB400" fill-opacity="1.000000" fill-rule="nonzero"/>
		<path id="Vector" d="M13.35 37.85L20.71 37.85C21.16 39.02 22.3 39.86 23.62 39.86C24.95 39.86 26.08 39.02 26.53 37.85L28 37.85C28.62 37.85 29.11 37.35 29.11 36.74C29.11 36.12 28.62 35.62 28 35.62L26.53 35.62C26.08 34.46 24.95 33.62 23.62 33.62C22.3 33.62 21.16 34.46 20.71 35.62L13.35 35.62C12.74 35.62 12.24 36.12 12.24 36.74C12.24 37.35 12.74 37.85 13.35 37.85ZM23.62 35.85C24.11 35.85 24.51 36.25 24.51 36.74C24.51 37.23 24.11 37.63 23.62 37.63C23.13 37.63 22.73 37.23 22.73 36.74C22.73 36.25 23.13 35.85 23.62 35.85Z" fill="#FFB400" fill-opacity="1.000000" fill-rule="nonzero"/>
		<path id="Vector" d="M13.35 31.47L14.78 31.47C15.23 32.64 16.36 33.47 17.68 33.47C19.01 33.47 20.14 32.64 20.59 31.47L28 31.47C28.62 31.47 29.11 30.97 29.11 30.36C29.11 29.74 28.62 29.24 28 29.24L20.59 29.24C20.14 28.07 19.01 27.24 17.68 27.24C16.36 27.24 15.23 28.07 14.78 29.24L13.35 29.24C12.74 29.24 12.24 29.74 12.24 30.36C12.24 30.97 12.74 31.47 13.35 31.47ZM17.68 29.46C18.18 29.46 18.57 29.86 18.57 30.36C18.57 30.85 18.18 31.25 17.68 31.25C17.19 31.25 16.79 30.85 16.79 30.36C16.79 29.86 17.19 29.46 17.68 29.46Z" fill="#FFB400" fill-opacity="1.000000" fill-rule="nonzero"/>
		<path id="Vector" d="M29.34 20.11C29.34 20.73 28.84 21.23 28.22 21.23C27.61 21.23 27.11 20.73 27.11 20.11C27.11 19.5 27.61 19 28.22 19C28.84 19 29.34 19.5 29.34 20.11Z" fill="#FFB400" fill-opacity="1.000000" fill-rule="evenodd"/>
		<path id="Vector" d="M26.27 20.11C26.27 20.73 25.77 21.23 25.16 21.23C24.54 21.23 24.04 20.73 24.04 20.11C24.04 19.5 24.54 19 25.16 19C25.77 19 26.27 19.5 26.27 20.11Z" fill="#FFB400" fill-opacity="1.000000" fill-rule="evenodd"/>
		<path id="Vector" d="M23.2 20.11C23.2 20.73 22.7 21.23 22.09 21.23C21.47 21.23 20.97 20.73 20.97 20.11C20.97 19.5 21.47 19 22.09 19C22.7 19 23.2 19.5 23.2 20.11Z" fill="#FFB400" fill-opacity="1.000000" fill-rule="evenodd"/>
		<path id="Vector" d="M72.66 7.49L72.24 7.49L72.55 7.18C73.48 6.25 73.48 4.73 72.55 3.8L70.11 1.36C69.18 0.43 67.66 0.43 66.73 1.36L60.61 7.49L3.33 7.49C1.49 7.49 0 8.99 0 10.83L0 57.06C0 59.31 1.83 61.14 4.08 61.14L30.45 61.14L30.45 69.02L25.08 69.02C23.65 69.02 22.48 70.18 22.48 71.62L22.48 72.73C22.48 74.16 23.65 75.33 25.08 75.33L50.91 75.33C52.34 75.33 53.51 74.16 53.51 72.73L53.51 71.62C53.51 70.18 52.34 69.02 50.91 69.02L45.54 69.02L45.54 61.14L57.44 61.14C58.06 61.14 58.55 60.64 58.55 60.03C58.55 59.41 58.06 58.92 57.44 58.92L4.08 58.92C3.05 58.92 2.22 58.08 2.22 57.06L2.22 53.77L73.77 53.77L73.77 57.06C73.77 58.08 72.94 58.92 71.91 58.92L62.64 58.92C62.02 58.92 61.52 59.41 61.52 60.03C61.52 60.64 62.02 61.14 62.64 61.14L71.91 61.14C74.16 61.14 76 59.31 76 57.06L76 10.83C76 8.99 74.5 7.49 72.66 7.49ZM50.91 71.25C51.11 71.25 51.28 71.41 51.28 71.62L51.28 72.73C51.28 72.93 51.11 73.1 50.91 73.1L25.08 73.1C24.88 73.1 24.71 72.93 24.71 72.73L24.71 71.62C24.71 71.41 24.88 71.25 25.08 71.25L50.91 71.25ZM32.67 61.14L43.32 61.14L43.32 69.02L32.67 69.02L32.67 61.14ZM68.31 2.94C68.37 2.87 68.47 2.87 68.54 2.94L70.97 5.37C71.04 5.44 71.04 5.54 70.97 5.6L68.65 7.93L65.98 5.26L68.31 2.94ZM64.41 6.84L67.07 9.5L66.3 10.28L63.63 7.61L64.41 6.84ZM62.06 9.19L64.72 11.85L51.55 25.03L48.88 22.36L62.06 9.19ZM60.41 19.37C61.92 19.37 63.16 20.6 63.16 22.11C63.16 23.63 61.92 24.86 60.41 24.86C58.89 24.86 57.66 23.63 57.66 22.11C57.66 22.09 57.67 22.08 57.67 22.06L60.36 19.37C60.37 19.37 60.39 19.37 60.41 19.37ZM49.62 26.24L46.32 27.59L47.67 24.29L49.62 26.24ZM73.77 51.54L2.22 51.54L2.22 10.83C2.22 10.21 2.72 9.72 3.33 9.72L58.38 9.72L56.68 11.41L18.85 11.41C18.23 11.41 17.73 11.91 17.73 12.53C17.73 13.14 18.23 13.64 18.85 13.64L54.46 13.64L46.6 21.49C46.38 21.72 46.21 21.98 46.09 22.27L43.6 28.36C43.37 28.92 43.5 29.55 43.93 29.98C44.22 30.27 44.6 30.42 44.99 30.42C45.18 30.42 45.37 30.38 45.55 30.31L51.64 27.82C51.93 27.71 52.18 27.54 52.4 27.32L55.79 23.94C56.52 25.78 58.31 27.08 60.41 27.08C63.15 27.08 65.38 24.85 65.38 22.11C65.38 20.02 64.08 18.22 62.24 17.49L66.09 13.64L69.84 13.64L69.84 47.62L69.25 47.62L65.22 40.63C64.91 40.1 64.23 39.91 63.7 40.22C63.17 40.53 62.98 41.21 63.29 41.74L66.68 47.62L51.13 47.62L49.46 44.73L57.24 31.26L60.69 37.24C61 37.77 61.68 37.96 62.21 37.65C62.75 37.34 62.93 36.66 62.62 36.13L58.94 29.75C58.58 29.13 57.95 28.77 57.24 28.77C56.53 28.77 55.9 29.13 55.54 29.75L48.18 42.5L38.73 26.13C38.37 25.52 37.74 25.15 37.03 25.15C36.32 25.15 35.69 25.52 35.33 26.13L32.82 30.48L32.82 18.55C32.82 17.12 31.66 15.95 30.23 15.95L11.13 15.95C9.7 15.95 8.53 17.12 8.53 18.55L8.53 42.89C8.53 43.92 9.36 44.75 10.39 44.75L24.59 44.75L22.93 47.62L6.15 47.62L6.15 13.64L13.65 13.64C14.27 13.64 14.76 13.14 14.76 12.53C14.76 11.91 14.27 11.41 13.65 11.41L5.77 11.41C4.75 11.41 3.92 12.25 3.92 13.27L3.92 47.99C3.92 49.01 4.75 49.84 5.77 49.84L70.22 49.84C71.24 49.84 72.07 49.01 72.07 47.99L72.07 13.27C72.07 12.25 71.24 11.41 70.22 11.41L68.31 11.41L70.01 9.72L72.66 9.72C73.27 9.72 73.77 10.21 73.77 10.83L73.77 51.54ZM30.6 24.71L30.6 42.52L10.76 42.52L10.76 24.71L30.6 24.71ZM10.76 22.49L10.76 18.55C10.76 18.34 10.92 18.18 11.13 18.18L30.23 18.18C30.43 18.18 30.6 18.34 30.6 18.55L30.6 22.49L10.76 22.49ZM27.16 44.75L30.97 44.75C31.99 44.75 32.82 43.92 32.82 42.89L32.82 40.53C33.1 40.67 33.41 40.74 33.74 40.74C34.5 40.74 35.18 40.35 35.56 39.69L37.45 36.41C37.51 36.31 37.6 36.29 37.66 36.29C37.72 36.29 37.81 36.31 37.87 36.41L39.04 38.43C39.42 39.09 40.1 39.48 40.86 39.48C41.62 39.48 42.3 39.09 42.68 38.43L42.97 37.93L48.56 47.62L25.5 47.62L27.16 44.75ZM32.82 36.81L32.82 34.94L37.03 27.65L41.68 35.7L40.86 37.13L39.8 35.29C39.35 34.52 38.55 34.06 37.66 34.06C36.77 34.06 35.97 34.52 35.52 35.29L33.74 38.39L32.82 36.81Z" fill="#FFB400" fill-opacity="1.000000" fill-rule="nonzero"/>
	</g>
</svg>
