<svg width="30.000000" height="30.000000" viewBox="0 0 30 30" fill="none" xmlns="http://www.w3.org/2000/svg" xmlns:xlink="http://www.w3.org/1999/xlink">
	<desc>
			Created with Pixso.
	</desc>
	<defs>
		<clipPath id="clip2_6707">
			<rect id="Icons/Contrast" width="30.000000" height="30.000000" fill="white" fill-opacity="0"/>
		</clipPath>
	</defs>
	<rect id="Icons/Contrast" width="30.000000" height="30.000000" fill="#FFFFFF" fill-opacity="0"/>
	<rect id="Icons/Contrast" width="30.000000" height="30.000000" fill="#FFFFFF" fill-opacity="0"/>
	<rect id="Icons/Contrast" width="30.000000" height="30.000000" fill="#FFFFFF" fill-opacity="0"/>
	<rect id="Icons/Contrast" width="30.000000" height="30.000000" fill="#FFFFFF" fill-opacity="0"/>
	<g clip-path="url(#clip2_6707)">
		<path id="Vector" d="M15.5 27C8.59 27 3 21.4 3 14.5C3 7.59 8.59 2 15.5 2C22.4 2 28 7.59 28 14.5C28 21.4 22.4 27 15.5 27ZM7.16 20.03C7.98 21.26 9.06 22.29 10.33 23.05C11.6 23.81 13.02 24.28 14.49 24.42C15.96 24.57 17.45 24.38 18.84 23.88C20.23 23.39 21.5 22.59 22.54 21.54C23.59 20.49 24.39 19.23 24.89 17.84C25.38 16.45 25.57 14.96 25.42 13.49C25.28 12.02 24.81 10.6 24.05 9.33C23.29 8.06 22.26 6.98 21.03 6.16C21.57 8.08 21.58 10.11 21.08 12.04C20.57 13.97 19.56 15.73 18.15 17.15C16.74 18.56 14.97 19.57 13.04 20.08C11.11 20.58 9.08 20.56 7.16 20.03Z" fill="#2B2B2B" fill-opacity="1.000000" fill-rule="nonzero"/>
	</g>
</svg>
