<svg width="18.000000" height="18.000000" viewBox="0 0 18 18" fill="none" xmlns="http://www.w3.org/2000/svg" xmlns:xlink="http://www.w3.org/1999/xlink">
	<desc>
			Created with Pixso.
	</desc>
	<defs>
		<clipPath id="clip2_6602">
			<rect id="Icons/Contact" width="18.000000" height="18.000000" fill="white" fill-opacity="0"/>
		</clipPath>
	</defs>
	<rect id="Icons/Contact" width="18.000000" height="18.000000" fill="#FFFFFF" fill-opacity="0"/>
	<rect id="Icons/Contact" width="18.000000" height="18.000000" fill="#FFFFFF" fill-opacity="0"/>
	<rect id="Icons/Contact" width="18.000000" height="18.000000" fill="#FFFFFF" fill-opacity="0"/>
	<rect id="Icons/Contact" width="18.000000" height="18.000000" fill="#727272" fill-opacity="0"/>
	<g clip-path="url(#clip2_6602)">
		<path id="Vector" d="M4.84 14.25L1.5 16.87L1.5 3C1.5 2.8 1.57 2.61 1.71 2.46C1.86 2.32 2.05 2.25 2.25 2.25L15.75 2.25C15.94 2.25 16.13 2.32 16.28 2.46C16.42 2.61 16.5 2.8 16.5 3L16.5 13.5C16.5 13.69 16.42 13.88 16.28 14.03C16.13 14.17 15.94 14.25 15.75 14.25L4.84 14.25Z" fill="#767676" fill-opacity="1.000000" fill-rule="nonzero"/>
	</g>
</svg>
