<svg width="18.000000" height="18.000000" viewBox="0 0 18 18" fill="none" xmlns="http://www.w3.org/2000/svg" xmlns:xlink="http://www.w3.org/1999/xlink">
	<desc>
			Created with Pixso.
	</desc>
	<defs>
		<clipPath id="clip2_6646">
			<rect id="Icons/Portfolio" width="18.000000" height="18.000000" fill="white" fill-opacity="0"/>
		</clipPath>
	</defs>
	<rect id="Icons/Portfolio" width="18.000000" height="18.000000" fill="#FFFFFF" fill-opacity="0"/>
	<rect id="Icons/Portfolio" width="18.000000" height="18.000000" fill="#FFFFFF" fill-opacity="0"/>
	<rect id="Icons/Portfolio" width="18.000000" height="18.000000" fill="#FFFFFF" fill-opacity="0"/>
	<rect id="Icons/Portfolio" width="18.000000" height="18.000000" fill="#727272" fill-opacity="0"/>
	<g clip-path="url(#clip2_6646)">
		<path id="Vector" d="M6.75 9.75L6.75 12L11.25 12L11.25 9.75L16.5 9.75L16.5 15C16.5 15.19 16.42 15.38 16.28 15.53C16.13 15.67 15.94 15.75 15.75 15.75L2.25 15.75C2.05 15.75 1.86 15.67 1.71 15.53C1.57 15.38 1.5 15.19 1.5 15L1.5 9.75L6.75 9.75ZM8.25 8.25L9.75 8.25L9.75 10.5L8.25 10.5L8.25 8.25ZM5.25 3.75L5.25 1.5C5.25 1.3 5.32 1.11 5.46 0.96C5.61 0.82 5.8 0.75 6 0.75L12 0.75C12.19 0.75 12.38 0.82 12.53 0.96C12.67 1.11 12.75 1.3 12.75 1.5L12.75 3.75L15.75 3.75C15.94 3.75 16.13 3.82 16.28 3.96C16.42 4.11 16.5 4.3 16.5 4.5L16.5 8.25L11.25 8.25L11.25 6.75L6.75 6.75L6.75 8.25L1.5 8.25L1.5 4.5C1.5 4.3 1.57 4.11 1.71 3.96C1.86 3.82 2.05 3.75 2.25 3.75L5.25 3.75ZM6.75 2.25L6.75 3.75L11.25 3.75L11.25 2.25L6.75 2.25Z" fill="#767676" fill-opacity="1.000000" fill-rule="nonzero"/>
	</g>
</svg>
