<svg width="16.500000" height="18.000977" viewBox="0 0 16.5 18.001" fill="none" xmlns="http://www.w3.org/2000/svg" xmlns:xlink="http://www.w3.org/1999/xlink">
	<desc>
			Created with Pixso.
	</desc>
	<defs/>
	<path id="Vector" d="M11.76 11.27L8.25 14.62L4.73 11.27C2.1 11.38 0 13.43 0 15.97L0 16.31C0 17.24 0.79 18 1.76 18L14.73 18C15.7 18 16.5 17.24 16.5 16.31L16.5 15.97C16.5 13.43 14.39 11.38 11.76 11.27ZM0.5 2.8L0.73 2.85L0.73 4.91C0.47 5.06 0.29 5.31 0.29 5.62C0.29 5.92 0.46 6.16 0.7 6.31L0.12 8.5C0.06 8.75 0.2 9 0.4 9L1.94 9C2.15 9 2.29 8.75 2.22 8.5L1.65 6.31C1.89 6.16 2.06 5.92 2.06 5.62C2.06 5.31 1.87 5.06 1.62 4.91L1.62 3.06L4.05 3.62C3.73 4.22 3.53 4.9 3.53 5.62C3.53 8.11 5.64 10.12 8.25 10.12C10.85 10.12 12.96 8.11 12.96 5.62C12.96 4.9 12.76 4.22 12.44 3.62L15.99 2.8C16.66 2.65 16.66 1.85 15.99 1.69L8.98 0.08C8.5 -0.03 7.99 -0.03 7.52 0.08L0.5 1.69C-0.17 1.85 -0.17 2.65 0.5 2.8Z" fill="#767676" fill-opacity="1.000000" fill-rule="nonzero"/>
</svg>
