<svg width="18.000000" height="18.000000" viewBox="0 0 18 18" fill="none" xmlns="http://www.w3.org/2000/svg" xmlns:xlink="http://www.w3.org/1999/xlink">
	<desc>
			Created with Pixso.
	</desc>
	<defs>
		<clipPath id="clip2_6685">
			<rect id="Icons/Home" width="18.000000" height="18.000000" fill="white" fill-opacity="0"/>
		</clipPath>
	</defs>
	<rect id="Icons/Home" width="18.000000" height="18.000000" fill="#FFFFFF" fill-opacity="0"/>
	<rect id="Icons/Home" width="18.000000" height="18.000000" fill="#FFFFFF" fill-opacity="0"/>
	<rect id="Icons/Home" width="18.000000" height="18.000000" fill="#FFFFFF" fill-opacity="0"/>
	<rect id="Icons/Home" width="18.000000" height="18.000000" fill="#FFFFFF" fill-opacity="0"/>
	<g clip-path="url(#clip2_6685)">
		<path id="Vector" d="M15 15C15 15.19 14.92 15.38 14.78 15.53C14.63 15.67 14.44 15.75 14.25 15.75L3.75 15.75C3.55 15.75 3.36 15.67 3.21 15.53C3.07 15.38 3 15.19 3 15L3 8.25L0.75 8.25L8.49 1.2C8.63 1.08 8.81 1.01 9 1.01C9.18 1.01 9.36 1.08 9.5 1.2L17.25 8.25L15 8.25L15 15Z" fill="#2B2B2B" fill-opacity="1.000000" fill-rule="nonzero"/>
	</g>
</svg>
