<svg width="16.500000" height="18.000000" viewBox="0 0 16.5 18" fill="none" xmlns="http://www.w3.org/2000/svg" xmlns:xlink="http://www.w3.org/1999/xlink">
	<desc>
			Created with Pixso.
	</desc>
	<defs/>
	<path id="Vector" d="M16.5 4.28L16.5 4.5L11 4.5L11 0L11.26 0C11.53 0 11.79 0.08 11.98 0.24L16.19 3.69C16.39 3.84 16.5 4.06 16.5 4.28ZM10.65 5.62C10.08 5.62 9.62 5.24 9.62 4.78L9.62 0L1.03 0C0.46 0 0 0.37 0 0.84L0 17.15C0 17.62 0.46 18 1.03 18L15.46 18C16.03 18 16.5 17.62 16.5 17.15L16.5 5.62L10.65 5.62ZM5.29 14.08C5.27 14.09 5.24 14.11 5.22 14.12C5.19 14.13 5.16 14.13 5.13 14.14C5.1 14.14 5.07 14.13 5.04 14.12C5.01 14.11 4.98 14.1 4.96 14.08L2.17 11.95C2.15 11.93 2.13 11.91 2.12 11.88C2.11 11.86 2.1 11.83 2.1 11.81C2.1 11.78 2.11 11.76 2.12 11.73C2.13 11.71 2.15 11.69 2.17 11.67L4.96 9.53C4.98 9.51 5.01 9.5 5.04 9.49C5.07 9.48 5.1 9.48 5.13 9.48C5.16 9.48 5.19 9.49 5.22 9.5C5.24 9.51 5.27 9.52 5.29 9.54L6.13 10.27C6.15 10.29 6.17 10.31 6.18 10.34C6.19 10.36 6.19 10.39 6.19 10.41C6.19 10.44 6.18 10.46 6.17 10.49C6.16 10.51 6.14 10.53 6.11 10.55L4.36 11.81L6.11 13.07C6.14 13.09 6.16 13.11 6.17 13.13C6.18 13.15 6.19 13.18 6.19 13.2C6.19 13.23 6.19 13.25 6.18 13.28C6.17 13.3 6.15 13.32 6.13 13.34L5.29 14.08ZM7.49 15.85L6.31 15.57C6.25 15.56 6.2 15.52 6.17 15.48C6.15 15.43 6.14 15.38 6.16 15.33L8.8 7.89C8.81 7.85 8.85 7.81 8.91 7.78C8.96 7.76 9.02 7.75 9.08 7.77L10.26 8.05C10.29 8.05 10.32 8.06 10.34 8.08C10.37 8.1 10.39 8.11 10.4 8.14C10.42 8.16 10.42 8.18 10.43 8.21C10.43 8.23 10.43 8.26 10.42 8.28L7.78 15.72C7.77 15.74 7.76 15.77 7.74 15.79C7.72 15.81 7.7 15.82 7.67 15.83C7.64 15.85 7.61 15.85 7.58 15.86C7.55 15.86 7.52 15.86 7.49 15.85ZM14.4 11.95L11.61 14.08C11.59 14.1 11.57 14.11 11.54 14.12C11.51 14.13 11.48 14.14 11.45 14.14C11.42 14.13 11.39 14.13 11.36 14.12C11.33 14.11 11.31 14.09 11.29 14.08L10.45 13.34C10.42 13.32 10.41 13.3 10.4 13.28C10.39 13.25 10.38 13.23 10.38 13.2C10.38 13.18 10.39 13.15 10.41 13.13C10.42 13.11 10.44 13.09 10.46 13.07L12.21 11.81L10.46 10.55C10.44 10.53 10.42 10.51 10.41 10.49C10.39 10.46 10.38 10.44 10.38 10.41C10.38 10.39 10.39 10.36 10.4 10.34C10.41 10.31 10.42 10.29 10.45 10.27L11.29 9.54C11.31 9.52 11.33 9.51 11.36 9.5C11.39 9.49 11.42 9.48 11.45 9.48C11.48 9.48 11.51 9.48 11.54 9.49C11.57 9.5 11.59 9.51 11.61 9.53L14.4 11.67C14.43 11.69 14.44 11.71 14.46 11.73C14.47 11.76 14.48 11.78 14.48 11.81C14.48 11.83 14.47 11.86 14.46 11.88C14.44 11.91 14.43 11.93 14.4 11.95Z" fill="#767676" fill-opacity="1.000000" fill-rule="nonzero"/>
</svg>
